<svg width="76" height="76" viewBox="0 0 76 76" fill="none" xmlns="http://www.w3.org/2000/svg">
<circle cx="38" cy="38" r="36.5" stroke="url(#paint0_linear_31_309)" stroke-width="3"/>
<path d="M51.3882 21.3577C52.256 21.3577 53.0153 21.6456 53.6661 22.2214C54.3169 22.7972 54.6423 23.5184 54.6423 24.3852C54.6423 25.1653 54.3634 26.1002 53.8056 27.1899C49.6899 34.9786 46.8077 39.6345 45.159 41.1576C43.9565 42.2844 42.6053 42.8478 41.1053 42.8478C39.5434 42.8478 38.2014 42.2751 37.0796 41.1297C35.9577 39.9843 35.3967 38.6253 35.3967 37.0527C35.3967 35.4677 35.967 34.1552 37.1075 33.115L48.9709 22.3607C49.7023 21.692 50.5081 21.3577 51.3882 21.3577ZM34.4856 40.5632C34.9691 41.5043 35.6292 42.3092 36.4659 42.9778C37.3027 43.6465 38.2355 44.1171 39.2644 44.3895L39.2839 45.7082C39.3335 48.3457 38.5308 50.4941 36.8758 52.1534C35.2204 53.8127 33.06 54.6423 30.3947 54.6423C28.8699 54.6423 27.5187 54.3544 26.3411 53.7786C25.1634 53.2028 24.2182 52.4135 23.5054 51.4105C22.7926 50.4075 22.2564 49.2744 21.8969 48.0114C21.5374 46.7484 21.3577 45.3863 21.3577 43.9251C21.4445 43.987 21.6986 44.1728 22.12 44.4823C22.5415 44.7919 22.9258 45.0674 23.2729 45.3089C23.62 45.5503 23.9857 45.7763 24.37 45.9868C24.7543 46.1973 25.0394 46.3026 25.2254 46.3026C25.7336 46.3026 26.0745 46.0735 26.2481 45.6154C26.558 44.7981 26.9144 44.1016 27.3173 43.5258C27.7202 42.95 28.151 42.4794 28.6096 42.1142C29.0683 41.7489 29.6137 41.4548 30.246 41.2319C30.8782 41.009 31.5166 40.8511 32.1613 40.7582C32.8059 40.6654 33.5806 40.6004 34.4856 40.5632Z" fill="url(#paint1_linear_31_309)"/>
<defs>
<linearGradient id="paint0_linear_31_309" x1="38" y1="0" x2="38" y2="76" gradientUnits="userSpaceOnUse">
<stop stop-color="#8FFCFF"/>
<stop offset="1" stop-color="#00B2FF"/>
</linearGradient>
<linearGradient id="paint1_linear_31_309" x1="38" y1="21.3577" x2="38" y2="54.6423" gradientUnits="userSpaceOnUse">
<stop stop-color="#00B2FF"/>
<stop offset="1" stop-color="#8FFCFF"/>
</linearGradient>
</defs>
</svg>
