<svg width="76" height="76" viewBox="0 0 76 76" fill="none" xmlns="http://www.w3.org/2000/svg">
<circle cx="38" cy="38" r="36.5" stroke="url(#paint0_linear_31_294)" stroke-width="3"/>
<path d="M51.103 32.5521L43.4212 29.2352L41.7105 28.5091C41.5704 28.4312 41.4519 28.3195 41.3658 28.184C41.2796 28.0486 41.2285 27.8937 41.217 27.7335V22.6838C41.217 21.0996 40.0492 19.2183 38.6345 18.4922C38.1411 18.2447 37.5489 18.2447 37.0554 18.4922C35.6572 19.2183 34.4893 21.1161 34.4893 22.7003V27.75C34.4893 28.047 34.2591 28.3935 33.9959 28.5256L24.6198 32.5686C23.5835 32.9976 22.7446 34.3013 22.7446 35.4235V37.6018C22.7446 39.0044 23.7974 39.6975 25.0969 39.1365L33.3379 35.572C33.9794 35.2915 34.5058 35.638 34.5058 36.3476V41.1497C34.5058 41.5293 34.2919 42.0738 34.0288 42.3379L30.2126 46.1829C29.8178 46.5789 29.6368 47.3545 29.8178 47.9156L30.558 50.1599C30.8541 51.1335 31.9562 51.5956 32.8609 51.1335L36.7758 47.8331C37.3679 47.3215 38.3384 47.3215 38.9306 47.8331L42.8455 51.1335C43.7502 51.5791 44.8523 51.1335 45.1813 50.1599L45.9215 47.9156C46.1025 47.371 45.9215 46.5789 45.5267 46.1829L41.7105 42.3379C41.4309 42.0738 41.217 41.5293 41.217 41.1497V36.3476C41.217 35.638 41.727 35.308 42.3849 35.572L50.626 39.1365C51.9255 39.6975 52.9782 39.0044 52.9782 37.6018V35.4235C52.9782 34.3013 52.1393 32.9976 51.103 32.5521Z" fill="url(#paint1_linear_31_294)"/>
<defs>
<linearGradient id="paint0_linear_31_294" x1="38" y1="0" x2="38" y2="76" gradientUnits="userSpaceOnUse">
<stop stop-color="#8FFCFF"/>
<stop offset="1" stop-color="#00B2FF"/>
</linearGradient>
<linearGradient id="paint1_linear_31_294" x1="37.8614" y1="18.3066" x2="37.8614" y2="51.3139" gradientUnits="userSpaceOnUse">
<stop stop-color="#00B2FF"/>
<stop offset="1" stop-color="#8FFCFF"/>
</linearGradient>
</defs>
</svg>
