<svg width="76" height="76" viewBox="0 0 76 76" fill="none" xmlns="http://www.w3.org/2000/svg">
<circle cx="38" cy="38" r="36.5" stroke="url(#paint0_linear_31_297)" stroke-width="3"/>
<path fill-rule="evenodd" clip-rule="evenodd" d="M22.067 38.8322V39.2763H47.8306V38.8322H22.067ZM45.8406 49.413C47.4326 47.4144 48.0627 45.3047 48.2684 43.5805C49.2037 43.0057 51.9565 41.4969 52.9315 43.0579C52.9315 43.0579 54.3046 46.1669 45.8406 49.413ZM54.1919 42.6987C53.2499 40.2495 49.8338 41.1769 48.3546 41.7713C48.3347 40.7524 48.202 39.7204 48.149 39.7204H21.8415C21.6624 40.6087 20.1368 48.6227 29.1381 53.5147H40.859C42.0265 52.6264 43.0148 52.1888 43.8506 51.5095C44.3282 51.503 44.7793 51.3462 44.7793 51.3462C56.4339 47.4013 54.1919 42.6987 54.1919 42.6987ZM43.2337 55.4218C43.2337 55.7614 42.9551 56.0292 42.6168 56.0292H26.2261C25.8812 56.0292 25.6092 55.7614 25.6092 55.4218V54.8601C25.6092 54.527 25.8812 54.2527 26.2261 54.2527H42.6168C42.9551 54.2527 43.2337 54.527 43.2337 54.8601V55.4218Z" fill="url(#paint1_linear_31_297)"/>
<path fill-rule="evenodd" clip-rule="evenodd" d="M30.8297 27.5742C32.5004 27.767 34.1977 27.7936 35.6364 27.7936C36.1071 27.7936 36.5712 27.7936 37.0419 27.7869C37.7712 27.7869 38.5005 27.7803 39.2231 27.7869H39.3358C39.5148 27.7869 39.7336 27.7869 39.959 27.7803C40.1911 27.7736 40.4364 27.7736 40.6618 27.7736C40.2176 27.8601 39.674 27.9598 39.1833 28.0462C38.2088 28.219 37.1944 28.4052 36.4651 28.578L36.3259 28.6046C34.9137 28.9437 32.7723 29.4489 32.0828 30.9779C31.8109 31.5696 31.8308 32.2477 32.1358 32.8327C32.4607 33.451 33.0574 33.8897 33.7336 34.0094C33.9723 34.0493 34.2242 34.0892 34.5027 34.0892C34.9535 34.0892 35.4043 34.0493 35.8353 33.9629C38.0629 33.5241 38.0828 34.1025 38.0828 34.1623C38.0894 34.5412 37.3535 35.1994 37.0353 35.4852C36.969 35.5451 36.9159 35.5916 36.8695 35.6315C36.79 35.7113 36.6905 35.7977 36.5911 35.8908C35.948 36.4625 35.0728 37.2469 35.1789 38.0979C35.1922 38.2042 35.285 38.2774 35.3844 38.2774H35.3911C35.4971 38.2774 35.5833 38.1976 35.59 38.0912C35.6165 37.7389 35.9546 37.4264 36.2728 37.1672C36.5778 36.9212 36.9093 36.6885 37.2275 36.4691C37.3601 36.3761 37.4927 36.283 37.6187 36.1899L37.632 36.1833C38.2154 35.7644 39.19 35.0664 39.3226 34.2288C39.3756 33.8897 39.2894 33.5706 39.064 33.2648C38.4474 32.4338 37.3402 32.3607 36.3458 32.3607H36.2662C36.0938 32.3607 35.9148 32.3674 35.7358 32.3674C35.5568 32.374 35.3712 32.3806 35.1855 32.3806C34.8739 32.3806 34.6154 32.3674 34.3833 32.3341C33.9259 32.2743 33.7667 32.0283 33.8728 31.8422C34.1977 31.2904 35.822 30.8051 38.7524 30.4262C38.9115 30.3996 39.0309 30.3863 39.117 30.373L39.6541 30.2932C40.695 30.1403 41.7624 29.9807 42.79 29.6749C44.6198 29.1298 44.9712 28.2057 44.9314 27.5077C44.9314 27.5011 44.9248 27.5011 44.9248 27.4944H44.9314L44.9248 27.4678V27.4279C44.8386 26.6967 44.3347 26.0984 43.5325 25.7925C42.3789 25.3405 41.0198 25.3405 39.8264 25.3338H39.5148C38.4872 25.3272 37.4463 25.3471 36.4386 25.3671C35.5568 25.387 34.6485 25.407 33.7535 25.407C32.8585 25.407 32.0761 25.387 31.3468 25.3471C30.7899 25.3139 30.127 25.2674 29.464 25.141C28.9601 25.0546 28.3369 24.935 27.9391 24.6026C27.5811 24.2968 27.9524 23.6253 28.2043 23.3129C28.9535 22.3689 30.2595 21.9766 31.4397 21.7174C32.527 21.4847 33.7137 21.3584 35.1789 21.3251C36.1203 21.2985 37.0353 21.3251 37.9104 21.3916H37.9237C38.0364 21.3916 38.1292 21.2985 38.1292 21.1855C38.1292 21.0858 38.0629 21.006 37.9634 20.9861C36.2927 20.5008 34.5093 20.2482 32.812 20.2482C32.2883 20.2482 31.7712 20.2748 31.2607 20.3213C29.3181 20.5008 26.8186 21.1988 25.9833 23.4924C25.6982 24.2702 25.738 24.9616 26.1026 25.5532C26.9048 26.8629 29.1192 27.3748 30.8297 27.5742Z" fill="url(#paint2_linear_31_297)"/>
<path fill-rule="evenodd" clip-rule="evenodd" d="M23.9092 42.7153C23.9092 42.7153 23.0929 45.7421 27.7372 49.6496L23.9092 42.7153Z" fill="url(#paint3_linear_31_297)"/>
<path d="M23.9092 42.7153C23.9092 42.7153 23.0929 45.7421 27.7372 49.6496" stroke="#FEFEFE" stroke-width="3"/>
<defs>
<linearGradient id="paint0_linear_31_297" x1="38" y1="0" x2="38" y2="76" gradientUnits="userSpaceOnUse">
<stop stop-color="#8FFCFF"/>
<stop offset="1" stop-color="#00B2FF"/>
</linearGradient>
<linearGradient id="paint1_linear_31_297" x1="38" y1="38.8322" x2="38" y2="56.0292" gradientUnits="userSpaceOnUse">
<stop stop-color="#00B2FF"/>
<stop offset="1" stop-color="#8FFCFF"/>
</linearGradient>
<linearGradient id="paint2_linear_31_297" x1="35.365" y1="20.2482" x2="35.365" y2="38.2774" gradientUnits="userSpaceOnUse">
<stop stop-color="#00B2FF"/>
<stop offset="1" stop-color="#8FFCFF"/>
</linearGradient>
<linearGradient id="paint3_linear_31_297" x1="25.7956" y1="42.7153" x2="25.7956" y2="49.6496" gradientUnits="userSpaceOnUse">
<stop stop-color="#00B2FF"/>
<stop offset="1" stop-color="#8FFCFF"/>
</linearGradient>
</defs>
</svg>
