<svg width="76" height="76" viewBox="0 0 76 76" fill="none" xmlns="http://www.w3.org/2000/svg">
<circle cx="38" cy="38" r="36.5" stroke="url(#paint0_linear_31_303)" stroke-width="3"/>
<path d="M34.7957 57.9289L30.037 56.5481C29.5378 56.4077 29.2569 55.885 29.3973 55.3857L40.0458 18.705C40.1863 18.2057 40.7089 17.9249 41.2082 18.0653L45.9669 19.4461C46.4661 19.5865 46.747 20.1092 46.6066 20.6084L35.9581 57.2892C35.8098 57.7885 35.295 58.0771 34.7957 57.9289ZM25.9025 49.176L29.2959 45.5563C29.6548 45.1741 29.6314 44.5656 29.2335 44.2146L22.1657 37.9971L29.2335 31.7796C29.6314 31.4286 29.6626 30.8201 29.2959 30.4378L25.9025 26.8181C25.5514 26.4437 24.9585 26.4203 24.5763 26.7791L13.3349 37.3106C12.937 37.6772 12.937 38.3091 13.3349 38.6758L24.5763 49.2151C24.9585 49.5739 25.5514 49.5583 25.9025 49.176ZM51.4276 49.2229L62.669 38.6836C63.0669 38.3169 63.0669 37.685 62.669 37.3184L51.4276 26.7713C51.0532 26.4203 50.4603 26.4359 50.1015 26.8103L46.708 30.43C46.3491 30.8123 46.3725 31.4208 46.7704 31.7718L53.8382 37.9971L46.7704 44.2146C46.3725 44.5656 46.3413 45.1741 46.708 45.5563L50.1015 49.176C50.4525 49.5583 51.0454 49.5739 51.4276 49.2229Z" fill="url(#paint1_linear_31_303)"/>
<defs>
<linearGradient id="paint0_linear_31_303" x1="38" y1="0" x2="38" y2="76" gradientUnits="userSpaceOnUse">
<stop stop-color="#8FFCFF"/>
<stop offset="1" stop-color="#00B2FF"/>
</linearGradient>
<linearGradient id="paint1_linear_31_303" x1="38.002" y1="18.0292" x2="38.002" y2="57.9678" gradientUnits="userSpaceOnUse">
<stop stop-color="#00B2FF"/>
<stop offset="1" stop-color="#8FFCFF"/>
</linearGradient>
</defs>
</svg>
