<svg width="76" height="76" viewBox="0 0 76 76" fill="none" xmlns="http://www.w3.org/2000/svg">
<circle cx="38" cy="38" r="36.5" stroke="url(#paint0_linear_31_306)" stroke-width="3"/>
<path d="M56.3065 25.651V47.6555C56.3065 49.4506 54.8502 51.0977 53.0621 51.3198L52.4906 51.3938C49.4674 51.801 45.2091 53.0594 41.7804 54.503C40.5822 55.0026 39.2549 54.0958 39.2549 52.7818V27.039C39.2549 26.3542 39.642 25.725 40.2503 25.3919C43.6238 23.5597 48.7301 21.9311 52.1957 21.635H52.3063C54.5184 21.635 56.3065 23.4302 56.3065 25.651ZM35.4906 25.3919C32.1172 23.5597 27.0109 21.9311 23.5453 21.635H23.4162C21.2041 21.635 19.416 23.4302 19.416 25.651V47.6555C19.416 49.4506 20.8723 51.0977 22.6604 51.3198L23.2319 51.3938C26.2551 51.801 30.5134 53.0594 33.9422 54.503C35.1404 55.0026 36.4676 54.0958 36.4676 52.7818V27.039C36.4701 26.701 36.3804 26.3689 36.2081 26.0785C36.0359 25.7882 35.7878 25.5507 35.4906 25.3919ZM24.9647 30.9994H29.1124C29.4791 30.9994 29.8307 31.1456 30.09 31.406C30.3493 31.6663 30.495 32.0193 30.495 32.3874C30.495 32.7555 30.3493 33.1086 30.09 33.3689C29.8307 33.6292 29.4791 33.7754 29.1124 33.7754H24.9647C24.598 33.7754 24.2464 33.6292 23.9871 33.3689C23.7278 33.1086 23.5821 32.7555 23.5821 32.3874C23.5821 32.0193 23.7278 31.6663 23.9871 31.406C24.2464 31.1456 24.598 30.9994 24.9647 30.9994ZM30.495 39.3274H24.9647C24.598 39.3274 24.2464 39.1812 23.9871 38.9209C23.7278 38.6606 23.5821 38.3076 23.5821 37.9394C23.5821 37.5713 23.7278 37.2183 23.9871 36.958C24.2464 36.6977 24.598 36.5514 24.9647 36.5514H30.495C30.8616 36.5514 31.2133 36.6977 31.4726 36.958C31.7319 37.2183 31.8775 37.5713 31.8775 37.9394C31.8775 38.3076 31.7319 38.6606 31.4726 38.9209C31.2133 39.1812 30.8616 39.3274 30.495 39.3274Z" fill="url(#paint1_linear_31_306)"/>
<defs>
<linearGradient id="paint0_linear_31_306" x1="38" y1="0" x2="38" y2="76" gradientUnits="userSpaceOnUse">
<stop stop-color="#8FFCFF"/>
<stop offset="1" stop-color="#00B2FF"/>
</linearGradient>
<linearGradient id="paint1_linear_31_306" x1="37.8613" y1="21.635" x2="37.8613" y2="54.6423" gradientUnits="userSpaceOnUse">
<stop stop-color="#00B2FF"/>
<stop offset="1" stop-color="#8FFCFF"/>
</linearGradient>
</defs>
</svg>
