<svg xmlns="http://www.w3.org/2000/svg" xmlns:xlink="http://www.w3.org/1999/xlink" viewBox="0 0 197.71 156.08"><defs><style>.cls-1{fill:url(#linear-gradient);}</style><linearGradient id="linear-gradient" y1="78.04" x2="197.71" y2="78.04" gradientUnits="userSpaceOnUse"><stop offset="0" stop-color="#a3dce9"/><stop offset="1" stop-color="#43abe1"/></linearGradient></defs><g id="Layer_2" data-name="Layer 2"><g id="Layer_1-2" data-name="Layer 1"><path class="cls-1" d="M137.06,96.22c-3,8.7-5.18,16.17-8.15,23.3-3.86,9.25-9.08,17.76-16.75,24.43-9.87,8.59-21.27,9.77-33.12,5.5-11.67-4.21-15.57-14.16-16.61-25.52-2.23-24.34,1-48.37,4.5-72.36,1.71-11.65,3.51-23.29,5.06-35,.29-2.17-.45-4.47-.76-7.07C45.41,14.51,24.11,25,11.92,49.18c-10.09,20-4.3,40.58,14.7,52.4.56.34,1.08.74,1.66,1.14-5.55,2.52-12.33,1-17.18-4.18C-.54,86-2.22,71.28,2.34,55.42,7.9,36.06,20.91,22.81,38.62,14.72c12.87-5.88,26.61-10,40.2-14.1C87.38-2,94.13,3.87,94.05,13.94a254.93,254.93,0,0,1-2.38,30.2c-3.23,25.34-7,50.61-10.15,76a55.66,55.66,0,0,0,.59,16.34c1.6,9.16,8.41,12.79,17.06,9.12,13.46-5.71,21.77-16.75,25.66-30.13a422.27,422.27,0,0,0,11.23-50.87c2.41-15,2.79-30.37,4.23-45.56a40.57,40.57,0,0,1,2.13-9.68,11.3,11.3,0,0,1,14.64-6.71c4,1.45,6.37,4.05,6.05,8.57-.78,10.91-1.35,21.85-2.35,32.74-2.7,29.28-5.46,58.58-1.42,87.9.75,5.48,3.78,10.78,6.45,15.8,2.1,3.93,6.37,4.29,9.43,1.61,3.76-3.29,8.1-7.14,9.53-11.6,3.3-10.34,5-21.19,7.35-31.84.28-1.27.4-2.58.62-4.05,3.71-.43,5.08,1.49,5,4.58-.42,13-1.91,25.83-8.49,37.46-8.51,15.05-26.84,16.57-37.66,3-6.84-8.54-10-18.59-11.34-29.31C139.35,110.84,138.25,104.2,137.06,96.22Z"/></g></g></svg>