<svg width="114" height="114" viewBox="0 0 114 114" fill="none" xmlns="http://www.w3.org/2000/svg">
<path d="M35.2927 34.2344V79.3626H83.1032V34.2344H35.2927ZM37.2795 36.1581H81.1058V77.4287H37.2795V36.1581ZM48.8071 59.7868L47.2241 65.5475C47.1922 65.7018 47.1178 65.7635 46.9266 65.7635H44.0049C43.8136 65.7635 43.7817 65.6915 43.8136 65.4754L49.4659 46.3111C49.5615 45.9614 49.6252 45.6836 49.6571 44.727C49.6571 44.5932 49.7209 44.5315 49.8165 44.5315H53.9919C54.13 44.5315 54.1832 44.5727 54.215 44.727L60.5791 65.5063C60.611 65.6606 60.5791 65.7532 60.4198 65.7532H57.1368C56.9774 65.7532 56.8712 65.7018 56.8393 65.568L55.1925 59.7766L48.8071 59.7868ZM54.3957 56.6494C53.8326 54.52 52.4832 49.8395 51.9945 47.5867H51.9626C51.5377 49.8395 50.4646 53.6559 49.6359 56.6494H54.3957ZM65.0733 58.6244C65.1158 61.2373 66.3908 62.986 69.4188 62.986C70.5981 62.986 71.6181 62.8317 72.6593 62.3791C72.7974 62.3174 72.893 62.3585 72.893 62.5128V64.9405C72.893 65.1257 72.8292 65.2286 72.6911 65.3211C71.6393 65.8252 70.3325 66.0515 68.6963 66.0515C63.4371 66.0515 61.4716 62.2968 61.4716 58.0998C61.4716 53.553 63.9046 49.8292 68.1757 49.8292C72.5105 49.8292 74.0192 53.3679 74.0192 56.2276C74.0192 57.1534 73.9448 57.9146 73.8598 58.2644C73.8173 58.4187 73.7536 58.4804 73.5942 58.501C73.2011 58.573 72.0112 58.6347 70.2687 58.6347L65.0733 58.6244ZM69.1213 55.9704C70.1412 55.9704 70.5025 55.9704 70.5981 55.9396C70.5981 55.8059 70.63 55.703 70.63 55.6104C70.63 54.5509 70.0987 52.6272 68.027 52.6272C66.1252 52.6272 65.2964 54.2525 65.1052 55.9704H69.1213Z" fill="url(#paint0_linear_110_70)"/>
<path d="M58.8058 112C27.4328 112 2 87.3757 2 57C2 26.6243 27.4328 2 58.8058 2C83.1489 2 103.916 16.8253 112 37.6593" stroke="url(#paint1_linear_110_70)" stroke-width="3"/>
<defs>
<linearGradient id="paint0_linear_110_70" x1="59.198" y1="34.2344" x2="59.198" y2="79.3626" gradientUnits="userSpaceOnUse">
<stop stop-color="#00B2FF"/>
<stop offset="1" stop-color="#8FFCFF"/>
</linearGradient>
<linearGradient id="paint1_linear_110_70" x1="58.8058" y1="2" x2="58.8058" y2="112" gradientUnits="userSpaceOnUse">
<stop stop-color="#00B2FF"/>
<stop offset="1" stop-color="#8FFCFF"/>
</linearGradient>
</defs>
</svg>
