<svg width="114" height="114" viewBox="0 0 114 114" fill="none" xmlns="http://www.w3.org/2000/svg">
<path d="M38.6148 38.0398H79.6779V76.3629H38.6148V38.0398ZM36.7483 78.1538H81.5444V36.249H36.7483V78.1538ZM66.0897 51.1843C66.0897 51.0411 66.1457 50.9694 66.3138 50.9694H69.2441C69.3934 50.9694 69.4681 51.0231 69.4681 51.1843V65.3138C69.4681 65.4569 69.4308 65.5286 69.2441 65.5286H66.3511C66.1645 65.5286 66.1084 65.4391 66.1084 65.2958V51.1843H66.0897ZM65.8844 47.1192C65.8844 45.9731 66.7243 45.2926 67.7883 45.2926C68.9269 45.2926 69.6921 46.0268 69.6921 47.1192C69.6921 48.3011 68.8896 48.9457 67.751 48.9457C66.6683 48.9458 65.8844 48.3011 65.8844 47.1192ZM57.4852 57.076C56.9626 55.0882 55.7307 50.7545 55.264 48.6593H55.2267C54.8347 50.7545 53.8455 54.3002 53.0616 57.076H57.4852ZM52.2963 59.9772L50.8217 65.3496C50.7844 65.4927 50.7284 65.5285 50.5418 65.5285H47.798C47.6114 65.5285 47.574 65.4748 47.6114 65.26L52.9122 47.4594C53.0056 47.1371 53.0615 46.8505 53.0989 45.9731C53.0989 45.8477 53.1549 45.794 53.2482 45.794H57.1678C57.2985 45.794 57.3545 45.8298 57.3919 45.9731L63.3273 65.2958C63.3646 65.4389 63.3273 65.5285 63.178 65.5285H60.0796C59.9303 65.5285 59.8369 65.4927 59.7996 65.3675L58.2691 59.9772H52.2963Z" fill="url(#paint0_linear_110_23)"/>
<path d="M59.1465 112C27.5853 112 2 87.3757 2 57C2 26.6243 27.5853 2 59.1465 2C82.9992 2 103.439 16.0649 112 36.0476" stroke="url(#paint1_linear_110_23)" stroke-width="3"/>
<defs>
<linearGradient id="paint0_linear_110_23" x1="59.1464" y1="36.249" x2="59.1464" y2="78.1538" gradientUnits="userSpaceOnUse">
<stop stop-color="#00B2FF"/>
<stop offset="1" stop-color="#8FFCFF"/>
</linearGradient>
<linearGradient id="paint1_linear_110_23" x1="59.1465" y1="2" x2="59.1465" y2="112" gradientUnits="userSpaceOnUse">
<stop stop-color="#00B2FF"/>
<stop offset="1" stop-color="#8FFCFF"/>
</linearGradient>
</defs>
</svg>
