<svg width="114" height="114" viewBox="0 0 114 114" fill="none" xmlns="http://www.w3.org/2000/svg">
<path d="M74.6414 77.491C71.3385 79.0521 67.0251 79.8302 61.7054 79.8302C54.7603 79.8302 49.3007 77.8397 45.3265 73.8568C41.3455 69.8738 39.3584 64.5682 39.3584 57.9384C39.3584 50.8772 41.5946 45.1502 46.0675 40.7587C50.5365 36.3663 56.3384 34.1698 63.4696 34.1698C67.8889 34.1698 71.6111 34.713 74.6414 35.8022V45.3756C71.6111 43.612 68.1614 42.7302 64.2906 42.7302C60.0439 42.7302 56.6114 44.0334 54.0027 46.6399C51.394 49.2463 50.0914 52.7755 50.0914 57.2302C50.0914 61.4999 51.3209 64.9026 53.7833 67.4348C56.2423 69.9733 59.5588 71.2394 63.7222 71.2394C67.6998 71.2394 71.3385 70.2976 74.6414 68.4056V77.491Z" fill="url(#paint0_linear_110_38)"/>
<path d="M57 112C26.6243 112 2 87.3757 2 57C2 26.6243 26.6243 2 57 2C87.3757 2 112 26.6243 112 57C112 76.8124 101.524 94.178 85.8095 103.86" stroke="url(#paint1_linear_110_38)" stroke-width="3"/>
<defs>
<linearGradient id="paint0_linear_110_38" x1="83.0719" y1="30.0439" x2="83.0719" y2="75.7043" gradientUnits="userSpaceOnUse">
<stop stop-color="#00B2FF"/>
<stop offset="1" stop-color="#8FFCFF"/>
</linearGradient>
<linearGradient id="paint1_linear_110_38" x1="57" y1="2" x2="57" y2="112" gradientUnits="userSpaceOnUse">
<stop stop-color="#00B2FF"/>
<stop offset="1" stop-color="#8FFCFF"/>
</linearGradient>
</defs>
</svg>
