<svg width="114" height="114" viewBox="0 0 114 114" fill="none" xmlns="http://www.w3.org/2000/svg">
<path d="M52.1341 72.3201C49.749 73.4872 46.6341 74.069 42.7926 74.069C37.7774 74.069 33.8349 72.5808 30.965 69.6029C28.0902 66.6251 26.6553 62.6584 26.6553 57.7016C26.6553 52.4223 28.2701 48.1405 31.5001 44.8572C34.7273 41.5732 38.917 39.931 44.0667 39.931C47.258 39.931 49.9458 40.3371 52.1341 41.1515V48.309C49.9458 46.9905 47.4548 46.3312 44.6595 46.3312C41.5929 46.3312 39.1141 47.3055 37.2303 49.2542C35.3465 51.2029 34.4059 53.8415 34.4059 57.1721C34.4059 60.3644 35.2937 62.9083 37.0719 64.8016C38.8476 66.6994 41.2426 67.6461 44.249 67.6461C47.1214 67.6461 49.749 66.942 52.1341 65.5274V72.3201ZM64.9795 64.4403V59.4302H69.9395V54.5118H64.9795V49.5597H60.1104V54.5118H55.2082V59.4302H60.1108V64.4403H64.9795ZM82.385 64.4403V59.4302H87.3449V54.5118H82.385V49.5597H77.5162V54.5118H72.6136V59.4302H77.5162V64.4403H82.385Z" fill="url(#paint0_linear_110_41)"/>
<path d="M57 112C26.6243 112 2 87.3757 2 57C2 26.6243 26.6243 2 57 2C87.3757 2 112 26.6243 112 57C112 67.7331 108.926 77.7481 103.609 86.2125" stroke="url(#paint1_linear_110_41)" stroke-width="3"/>
<defs>
<linearGradient id="paint0_linear_110_41" x1="57.0001" y1="39.931" x2="57.0001" y2="74.069" gradientUnits="userSpaceOnUse">
<stop stop-color="#00B2FF"/>
<stop offset="1" stop-color="#8FFCFF"/>
</linearGradient>
<linearGradient id="paint1_linear_110_41" x1="57" y1="2" x2="57" y2="112" gradientUnits="userSpaceOnUse">
<stop stop-color="#00B2FF"/>
<stop offset="1" stop-color="#8FFCFF"/>
</linearGradient>
</defs>
</svg>
