<svg width="114" height="114" viewBox="0 0 114 114" fill="none" xmlns="http://www.w3.org/2000/svg">
<path d="M46.2224 75.7219C44.1791 74.1094 42.0017 72.5675 40.5144 70.394C37.3824 66.5592 34.9706 62.1215 33.3225 57.4554C32.3259 54.4219 31.9826 51.1683 30.6996 48.2507C29.3564 46.1343 30.9307 43.8164 33.2454 43.1445C34.2755 42.9463 36.086 41.9687 33.8986 42.6675C31.939 44.1086 31.7498 41.3573 33.7596 41.1826C35.133 40.9979 35.6355 39.8725 35.1665 38.8613C33.6926 37.8972 38.7374 36.8406 36.1983 35.4012C33.5553 32.5457 39.8964 31.9948 38.3321 35.2433C37.9602 37.7393 42.7638 34.783 41.6483 37.6687C42.7822 39.0545 45.8925 37.9845 45.8137 39.9279C47.4652 40.0421 48.0313 41.4346 49.5822 41.5404C51.1901 42.2677 54.0994 42.8405 54.6454 44.6562C53.0543 45.921 49.3645 42.0443 49.1853 45.5464C49.6677 50.7198 49.5437 56.0478 51.4296 60.9743C52.3223 63.9557 54.4863 66.3039 56.4375 68.6269C58.3084 70.9012 60.8425 72.5036 63.4218 73.8507C65.6862 74.9224 68.1282 75.6312 70.5953 76.078C71.5952 75.3104 73.3639 72.4566 74.9232 73.6593C74.9986 75.0131 71.8247 76.4878 74.7725 76.3383C76.506 75.8143 77.7068 77.6821 79.1322 75.9957C80.447 77.5578 84.5923 74.9996 83.6594 78.1893C82.3948 79.0074 80.5508 78.5135 79.2846 79.6389C77.196 78.5925 75.5329 80.5745 73.2215 80.3242C70.6539 80.7861 68.0428 80.9709 65.44 80.9743C61.1691 80.6383 56.8093 80.4939 52.7478 79.0023C50.4582 78.3355 48.2256 77.0287 46.2157 75.7202L46.2224 75.7219ZM49.8284 77.289C52.0627 78.2565 54.2501 79.2778 56.6955 79.5868C60.5812 80.1277 64.5925 80.9642 68.4916 80.2016C66.7263 79.4021 64.9024 80.5124 63.1438 79.6305C61.0334 80.084 58.7891 79.5129 56.6117 79.2324C54.1748 78.144 51.5435 77.3949 49.2623 75.9806C46.41 74.9358 50.7362 77.321 51.5067 77.5141C53.2887 78.5286 49.5471 77.0102 49.0178 76.5735C47.5238 75.7337 47.3345 75.9083 48.8704 76.7616L49.8083 77.289H49.8284ZM45.5742 74.2757C47.7399 75.0819 45.5642 72.7472 44.5743 72.8816C44.1355 72.1173 42.8944 71.6336 43.7704 71.2237C42.196 71.7713 42.1223 69.1409 41.3837 69.5172C39.7189 68.9897 40.7355 67.1219 38.7541 65.973C38.5732 64.7637 36.7845 63.7172 36.215 61.8948C35.9638 60.9609 34.1934 58.2835 35.2804 60.7761C36.205 63.178 37.8329 65.2323 39.1896 67.2849C40.2414 69.24 41.4842 71.2825 43.4002 72.5036C44.0467 73.1251 44.6698 74.0775 45.5809 74.2723L45.5742 74.2757ZM39.337 67.4058C39.7323 68.1146 39.4124 67.0783 39.337 67.4058ZM48.1686 75.2382C48.6476 75.0232 47.4786 74.966 48.1686 75.2382ZM49.3411 75.6681C49.2188 75.0752 48.8051 76.0007 49.3411 75.6681ZM50.8149 76.2829C51.515 75.6144 49.7346 75.863 50.8149 76.2829ZM53.3373 77.6938C53.7627 77.064 51.9756 77.4587 53.3373 77.6938ZM48.4969 74.3093C49.5856 73.6038 47.09 74.2992 48.4969 74.3093ZM49.6023 74.8636C49.5688 74.4907 49.2087 75.0316 49.6023 74.8636ZM55.1177 78.317C56.0054 78.878 60.2965 79.5465 57.6099 78.5471C57.1577 78.6412 52.6272 77.2605 55.1177 78.317ZM46.3614 71.4773C46.2777 71.1045 44.9847 71.0641 46.3614 71.4773ZM48.929 72.979C49.599 72.5087 47.5422 72.6178 48.929 72.979ZM51.1064 74.3227C52.0661 73.9599 49.5521 73.9582 51.1064 74.3227ZM45.313 70.3335C46.3514 71.133 49.5102 70.4343 46.9041 69.8565C45.72 69.2232 43.0519 68.7899 44.8708 70.2377L45.3113 70.3335H45.313ZM52.5484 74.7628C52.9839 74.0237 50.7295 74.3395 52.5484 74.7628ZM50.3493 73.0109C52.8952 73.7332 48.2105 71.3984 49.7212 72.7421L50.0562 72.8933L50.3493 73.0075V73.0109ZM54.7576 75.564C57.1694 75.5875 52.5803 75.2281 54.7576 75.564ZM44.3851 68.9343C44.2913 68.4842 43.7905 68.9713 44.3851 68.9343ZM58.8343 77.8568C58.8979 77.0438 58.0471 78.4615 58.8343 77.8568ZM48.5003 71.4572C48.3545 71.0289 47.7466 71.4404 48.5003 71.4572ZM44.6145 68.6521C45.998 68.5681 42.7219 68.0407 44.6145 68.6521ZM40.0136 65.6724C39.8411 65.0072 38.5096 64.4764 40.0136 65.6724ZM52.0929 73.3603C51.9756 73.4224 51.8416 73.0697 52.0929 73.3603ZM59.6098 77.9878C59.5863 77.5444 59.2011 78.1558 59.6098 77.9878ZM51.428 72.6716C51.5619 72.1005 50.2472 72.4986 51.428 72.6716ZM45.8271 69.1107C46.8572 69.0015 44.1774 68.4136 45.8271 69.1107ZM55.3003 75.0148C56.9048 74.3765 53.7376 74.704 55.3003 75.0148ZM50.3728 71.6604C52.2202 71.8989 48.1737 70.4007 49.9658 71.5261L50.3728 71.6604ZM56.7959 75.6211C58.5211 74.5881 57.9516 78.0449 59.7236 75.9134C61.4705 74.6335 58.2162 77.4956 60.3668 76.1418C61.9244 75.0971 64.224 76.6373 65.6762 77.1379C66.7213 77.0875 67.7363 78.0449 68.8082 77.4621C70.8683 76.9044 64.7751 76.6356 66.3729 75.648C64.487 76.1989 63.0935 74.9929 62.1639 73.7802C60.0469 73.2897 57.6016 72.2046 56.5447 70.3268C56.1143 69.6213 57.1644 70.4275 56.1729 69.2736C54.9 68.1365 54.2635 66.8448 53.406 65.4607C52.3843 64.9148 52.262 63.304 52.1599 65.407C52.1683 64.08 50.9255 63.1848 50.619 63.556C50.614 62.2794 51.9505 62.9177 51.0143 61.9737C50.8133 60.6468 50.15 59.2694 49.9524 57.7712C49.6425 57.0489 49.9088 55.5036 48.8972 57.1379C48.5287 58.8629 48.7749 55.0182 49.3494 56.2846C50.1031 54.9913 49.0781 55.1424 49.0379 55.3222C49.5286 54.2304 49.3494 52.6817 48.9089 53.273C49.1702 52.114 49.3226 49.015 48.5187 49.5642C49.0044 48.3549 49.4432 44.0263 47.3262 45.6758C46.4686 45.6875 44.9847 45.9882 44.2829 46.3376C46.482 47.5536 44.0618 46.7776 43.1641 46.5828C43.0468 47.7082 42.1592 47.2211 41.0537 47.2328C42.8258 47.4512 40.1912 49.0469 39.1779 48.4288C37.8581 49.0603 40.3168 50.6392 39.203 51.128C39.3403 51.862 37.1814 50.8626 37.3506 52.5625C36.071 52.0216 37.1747 54.5781 37.8162 53.713C39.9935 54.3043 39.3487 55.6514 39.404 56.933C39.0489 57.6788 37.6521 55.1794 39.0924 55.2953C37.9535 53.4426 37.8363 54.6234 36.89 55.4868C36.6722 55.5489 39.3018 56.7129 37.6504 57.284C39.1025 57.5091 39.1444 58.784 39.4391 59.5886C40.3101 60.5006 40.1309 58.5808 41.176 59.6776C40.5144 58.7034 37.6755 56.9279 39.9617 57.494C39.95 56.5131 39.548 55.7203 40.2498 55.7387C40.9449 54.479 39.5229 58.8461 41.0872 57.2437C41.5194 57.0539 41.6282 55.984 42.4054 57.3445C43.5342 58.4598 42.814 59.2661 41.2195 58.2448C41.5043 59.2157 43.3517 59.5617 43.0033 61.0784C43.3718 62.4138 43.886 61.9216 44.3348 61.8444C44.6698 63.1411 44.8875 62.187 44.9043 61.5706C46.5155 61.9166 46.137 62.8723 46.6428 63.5392C47.7533 64.0431 45.0517 60.1328 46.961 62.3634C48.9659 64.1775 47.7147 64.9383 45.9142 64.6478C47.0532 64.5554 47.4216 66.1931 48.8453 66.1343C50.145 66.7558 51.0226 69.1359 48.785 68.1432C48.0095 67.4411 45.2577 66.5744 47.5054 67.908C49.5789 68.8722 51.227 69.4466 53.2268 70.6577C54.6571 71.6655 55.2752 72.8547 55.8178 73.0882C54.6153 73.6643 52.1934 72.6279 53.9754 72.3105C52.8533 72.1055 51.5904 71.5378 52.6657 72.9387C53.5802 73.7046 55.9032 73.624 56.3203 73.7113C55.9686 74.4907 55.3606 74.5512 56.3337 74.6133C55.2484 75.1945 56.6821 75.2852 56.7826 75.6161L56.7959 75.6211ZM54.5751 69.3324C53.9135 68.6387 53.7426 67.342 54.4578 68.4707C54.8263 68.6185 55.6302 70.5922 54.5751 69.3324ZM61.8105 73.9196C62.2226 73.8927 61.8223 74.2337 61.8105 73.9196ZM53.5366 67.6124C53.7745 68.4186 53.5098 66.5643 53.5366 67.6124ZM52.8164 66.6432C53.8632 67.0967 51.984 65.0307 52.8164 66.6432ZM44.1037 60.5964C44.5928 60.4654 44.3449 61.4329 44.1037 60.5964ZM51.0377 64.3656C51.3727 65.3129 51.3392 63.2351 51.0377 64.3656ZM46.1387 60.9491C46.8589 61.5336 45.7936 60.3276 46.1387 60.9491ZM50.3426 62.2996C49.5554 60.5309 50.902 61.3338 50.5185 62.5885L50.3426 62.2996ZM43.0937 57.452C42.7588 56.8708 42.1608 55.1676 42.3484 54.6469C42.5159 55.4935 44.1439 58.2918 43.1457 55.8227C42.0436 53.7399 44.4638 56.498 44.7134 57.0187C44.8306 57.5343 44.0333 56.8776 44.5727 58.0903C43.5878 56.7096 43.9915 58.8529 43.0954 57.4688L43.0937 57.452ZM40.8544 55.9033C41.3669 56.8272 40.9465 54.5529 40.8544 55.9033ZM41.8627 56.2527C42.6767 57.672 42.3434 55.2348 41.8627 56.2527ZM39.4174 54.4051C38.5833 53.5736 37.9803 52.8094 39.4576 53.8894C40.027 53.9112 38.193 52.1476 39.5949 53.3284C41.0688 53.5971 40.3218 55.7522 39.4191 54.4034L39.4174 54.4051ZM40.6903 54.3715C41.176 53.8894 40.9482 54.8451 40.6903 54.3715ZM41.4741 54.6234C42.3652 55.2029 40.7372 53.2427 41.4741 54.6234ZM39.9165 53.1319C37.4913 50.9651 42.9648 54.2623 40.3118 53.535L39.9165 53.1319ZM46.8639 57.1799C45.8137 56.55 46.5842 52.7388 46.9426 55.344C47.9643 55.0131 46.8857 56.6911 47.6461 56.6743C47.5288 57.7325 47.1855 58.1155 46.8639 57.1799ZM49.4332 58.7034C49.6509 59.4895 49.5337 57.5545 49.4332 58.7034ZM48.9876 58.2599C49.1049 57.7695 48.9977 58.8377 48.9876 58.2599ZM40.4089 52.4197C38.8513 50.2647 44.9361 54.5999 41.4071 52.9656C41.0387 52.8682 40.5948 52.8346 40.4089 52.4197ZM45.3582 55.0501C45.6865 55.3524 45.2108 53.236 45.3582 55.0501ZM49.1149 57.4688C49.4047 56.4358 49.1367 58.1524 49.1149 57.4688ZM40.6484 51.5966C41.5746 51.3984 44.5006 53.2259 41.8125 52.1173C41.516 51.7881 40.8812 51.9376 40.6484 51.5966ZM48.5974 55.5708C48.6979 53.7147 49.1501 54.4622 48.6008 55.8395L48.5974 55.5708ZM41.3368 50.9516C41.7153 50.3973 40.3352 48.4439 41.5344 50.2512C42.0369 50.6644 43.0368 50.9432 42.1709 51.1179C43.5359 52.3273 41.8359 51.4455 41.3385 50.95L41.3368 50.9516ZM48.2038 54.993C48.4634 52.8766 48.4333 56.2309 48.2038 54.993ZM40.5496 48.9999C40.8377 48.8756 40.7003 49.3862 40.5496 48.9999ZM42.3417 50.0698C43.1926 51.1515 42.8023 49.099 42.3417 50.0698ZM47.3948 52.8883C47.4903 53.4309 47.3915 52.5188 47.3948 52.8883ZM47.1017 52.24C47.7717 53.1587 46.4016 50.5048 47.1017 52.24ZM46.6713 51.1011C47.0733 52.0014 46.554 50.3839 46.6713 51.1011ZM47.3714 49.959C46.889 49.109 47.9794 46.2133 48.1016 48.0105C47.5941 49.4114 47.9559 50.1941 48.3076 48.3129C48.9609 46.8347 48.1686 51.2305 47.3714 49.959ZM48.0916 45.6489C48.3009 45.3902 48.1385 45.9596 48.0916 45.6489ZM46.8873 69.4181C46.9242 69.5759 46.6026 69.1661 46.8873 69.4181ZM49.3662 70.6745C50.7446 71.0306 50.7396 70.4595 49.4918 70.2881C48.8218 69.6633 46.7081 68.9998 48.6008 70.2109C48.7247 70.5468 49.12 70.5233 49.3662 70.6745ZM44.4755 67.4159C45.2342 67.987 47.3345 69.025 45.5575 67.6342C46.1571 66.9355 44.4102 66.5626 44.988 66.0956C43.5141 65.1886 43.824 65.2558 44.8574 65.3012C43.0854 64.5067 45.1136 64.5671 45.0182 64.159C44.3348 64.0246 41.6249 62.9496 43.2194 64.2463C41.5981 63.4182 42.8341 64.5554 42.3434 64.4361C40.6685 63.9826 43.8173 65.7026 42.0804 65.276C43.0301 66.0318 44.6397 67.2126 42.4824 66.0755C42.1977 66.4853 44.0266 67.1085 44.4923 67.4192L44.4755 67.4159ZM47.0666 68.9108C50.2153 69.9287 45.5206 67.6678 47.0666 68.9108ZM60.3316 76.9699C60.3718 76.3417 59.9012 77.5074 60.3316 76.9699ZM61.695 77.546C62.4219 76.8406 61.7251 78.6714 62.9009 77.373C62.9126 76.4442 62.8674 75.8949 61.5509 77.0237C61.1875 77.2252 61.0267 78.0819 61.6967 77.5444L61.695 77.546ZM40.0505 63.9087C39.8277 63.0285 38.4861 63.0319 40.0505 63.9087ZM41.5076 64.8661C40.9666 63.9675 39.5782 64.0515 41.5076 64.8661ZM49.7916 69.8766C50.6006 70.5989 53.5065 70.4057 50.7731 69.9656C50.3711 69.366 48.2055 69.5121 49.7916 69.8766ZM61.1774 76.9313C62.4219 75.8831 59.9715 77.3982 61.1774 76.9313ZM63.7668 78.7151C63.7752 78.3792 63.2308 78.8612 63.7668 78.7151ZM63.7718 78.2448C65.1503 76.7835 62.437 78.3288 63.7718 78.2448ZM36.4696 60.9021C35.2972 59.2224 35.7393 58.4665 34.6071 57.0942C34.3927 56.0444 32.6643 53.6626 33.7127 56.1872C34.6741 57.6653 34.9588 59.9497 36.4696 60.9071V60.9021ZM63.3347 77.7762C65.8721 76.1334 62.2963 77.0606 63.3347 77.7762ZM65.2709 78.537C66.5438 77.4453 64.4669 78.3086 65.2709 78.537ZM39.6184 62.0527C39.9818 61.5101 38.6804 61.9821 39.6184 62.0527ZM64.8672 78.018C66.0966 77.2235 64.5825 77.3462 64.6444 78.0903L64.8672 78.018ZM48.182 67.4696C48.1402 66.9321 47.5322 67.515 48.182 67.4696ZM49.2121 68.0642C48.8838 67.3991 48.7096 68.1684 49.2121 68.0642ZM66.8402 78.5538C68.4146 77.4117 65.8855 78.3355 66.5103 78.7722L66.8402 78.5538ZM66.2373 78.2616C67.5219 77.1832 64.8806 78.7386 66.2373 78.2616ZM69.319 80.3192C70.1799 79.7414 68.2722 80.1344 69.319 80.3192ZM40.4106 61.6579C41.5662 61.9166 45.0249 64.51 42.9849 61.8377C41.9397 61.5269 42.5662 58.9654 41.4993 59.4189C42.2144 60.6182 42.0855 61.1288 40.5848 60.373C38.6972 59.4491 39.5246 60.8298 39.893 61.2128C39.3906 61.3304 40.558 61.6495 40.4123 61.6596L40.4106 61.6579ZM35.1515 57.4923C35.3575 56.6357 33.2471 52.7724 34.1549 55.5573C34.4815 56.1402 34.448 57.2454 35.1515 57.4923ZM44.8088 63.4636C44.7803 63.393 44.2126 62.9647 44.8088 63.4636ZM46.2727 63.8062C46.2727 62.8992 44.6547 63.4367 46.2727 63.8062ZM58.9632 71.8284C58.7204 71.2069 58.0086 71.815 58.9632 71.8284ZM59.5729 72.2752C59.4825 71.9275 59.2379 72.3424 59.5729 72.2752ZM64.6026 75.4531C65.0883 75.0954 63.9996 75.4061 64.6026 75.4531ZM37.776 58.1676C39.1594 57.6301 36.2937 57.7846 37.776 58.1676ZM57.8411 70.8458C57.8243 69.9472 56.9584 71.0692 57.8411 70.8458ZM37.2283 56.8876C38.116 56.5853 36.4076 56.6894 37.2283 56.8876ZM39.8076 58.1407C39.7909 57.8451 39.5346 58.2532 39.8076 58.1407ZM71.2753 77.4906C72.4176 77.2588 75.0237 78.0735 75.4458 77.1883C74.0556 77.1547 70.6439 76.2056 70.4831 77.4133L70.7846 77.4637L71.2753 77.494V77.4906ZM40.6283 58.349C40.6484 57.4386 39.9215 58.3154 40.6283 58.349ZM33.845 53.6291C33.5369 51.8956 32.6726 53.367 33.845 53.6291ZM35.4613 54.0372C35.4814 53.4796 33.9807 53.5367 35.4613 54.0372ZM36.3858 54.4907C36.1782 54.7645 36.1179 54.2724 36.3858 54.4907ZM42.2027 58.2314C42.4774 57.9794 41.5545 58.0466 42.2027 58.2314ZM35.7712 53.4611C35.6137 52.1509 33.8953 53.2646 35.7712 53.4611ZM32.4549 51.3027C32.408 50.698 32.1316 51.5311 32.4549 51.3027ZM32.949 50.9298C32.8686 50.2126 32.5252 51.0205 32.949 50.9298ZM35.674 52.5591C36.8263 52.1056 33.5754 51.6185 35.4395 52.4751L35.674 52.5591ZM72.1496 75.1626C72.8865 74.484 71.2117 74.9526 72.1496 75.1626ZM76.5545 77.452C76.851 76.5785 75.8092 77.5695 76.5545 77.452ZM35.9504 51.1347C36.0726 50.2865 35.0359 51.3027 35.9504 51.1347ZM32.0713 48.5312C31.867 47.3303 31.8972 45.2306 33.8869 45.9395C31.2289 46.4703 35.7293 49.2552 35.1598 47.0548C36.2786 47.1102 37.3472 46.3913 36.7593 47.4797C38.9652 47.2395 40.4893 45.3214 42.6197 45.5918C44.2946 45.3701 46.0901 45.2055 47.8789 44.5336C49.3477 44.4278 50.7597 42.8421 49.9557 41.9015C47.9526 41.7336 45.8556 41.9821 43.6414 42.4256C41.1877 42.9362 38.9601 43.9087 36.4847 44.3236C34.0728 44.6495 36.9704 45.2189 36.2786 45.3482C35.0225 45.7849 37.781 46.0806 36.1162 46.5442C35.0878 46.3476 34.0176 45.9932 34.4581 44.9065C32.1467 45.2088 30.1151 46.1696 31.9424 48.5279L32.0764 48.5295L32.0713 48.5312ZM37.6454 45.701C38.1863 43.6988 40.5479 47.347 38.533 45.9697C38.2935 45.7883 37.8966 45.6422 37.6454 45.701ZM37.7509 44.7301C38.533 44.1473 38.1662 45.0576 37.7509 44.7301ZM38.7441 44.7469C38.8161 43.8264 41.0186 45.2508 39.1075 45.0778L38.7441 44.7469ZM40.1007 44.1993C40.5982 43.6165 40.2448 44.715 40.1007 44.1993ZM40.4491 43.9642C41.2765 42.9681 45.127 43.3259 42.2915 43.8667C41.5378 43.2957 40.9566 44.2027 40.4491 43.9642ZM45.4737 43.1865C47.9727 44.1523 45.3498 40.4654 45.4737 43.1865ZM46.9007 43.1781C47.42 41.8075 48.9274 42.6271 47.1436 42.9026C47.1821 43.0487 47.09 43.6114 46.9007 43.1781ZM35.3893 50.4461C36.9469 49.4886 33.7362 49.6163 35.3893 50.4461ZM36.5416 50.782C37.0876 50.1991 35.3692 50.5468 36.5416 50.782ZM33.1483 48.3381C34.036 47.6494 32.0931 48.0777 33.1483 48.3381ZM79.1573 77.2034C79.1824 76.4072 78.4773 77.5611 79.1573 77.2034ZM74.4844 74.0036C74.6184 73.0882 73.8814 74.0825 74.4844 74.0036ZM80.447 77.5141C81.6914 77.5192 84.2188 77.1278 81.5105 77.1278C81.0851 77.195 79.0317 77.1782 80.447 77.5141ZM37.5583 50.1907C38.5665 50.1236 39.1326 49.0771 37.3623 49.1359C34.6155 48.8504 39.7842 50.0799 37.0273 49.7272C36.6555 49.9741 37.5532 50.2579 37.575 50.1891L37.5583 50.1907ZM38.4459 50.6409C38.3404 49.9925 38.1344 50.9852 38.4459 50.6409ZM39.5011 47.8258C39.9366 47.2815 38.8982 47.6796 39.5011 47.8258ZM36.1514 42.2089C37.9502 41.5958 40.4089 40.9071 41.2597 42.5112C40.3955 41.4698 40.9114 40.4419 41.7287 41.967C42.8844 43.509 43.4605 41.2649 42.7102 40.7476C43.5644 41.8125 44.5358 42.3164 43.283 40.8148C44.648 39.1687 40.5529 41.0298 39.6217 41.0113C39.1745 41.2129 34.999 42.0796 36.1547 42.2089H36.1514ZM37.2065 40.1849C38.2316 39.4089 40.7539 40.6468 39.136 39.4122C38.9769 39.2728 35.5936 40.3478 37.2065 40.1849ZM40.9449 40.3394C42.1441 40.3697 40.4257 38.7219 41.856 39.4693C41.6215 38.7 40.1912 38.5573 39.4911 38.2482C39.0958 38.9503 40.295 40.3478 40.9432 40.3394H40.9449ZM37.8631 36.9364C38.2785 36.372 37.1345 37.2219 37.8631 36.9364ZM39.3839 37.3026C41.3184 37.0456 38.8915 36.4678 38.9936 37.2824L39.3839 37.3026ZM36.5299 35.0686C35.1682 33.2848 39.0924 35.3676 37.7073 33.5014C36.5416 32.5726 35.4245 34.5496 36.5299 35.0686ZM54.0056 44.5084C54.6303 43.3998 51.4263 43.0135 53.5869 44.1153C53.7845 44.1825 53.741 44.5857 54.0056 44.5084Z" fill="url(#paint0_linear_110_26)"/>
<path d="M57 112C26.6243 112 2 87.3757 2 57C2 26.6243 26.6243 2 57 2C87.3757 2 112 26.6243 112 57C112 76.1271 102.236 92.9737 87.4212 102.828" stroke="url(#paint1_linear_110_26)" stroke-width="3"/>
<defs>
<linearGradient id="paint0_linear_110_26" x1="56.9999" y1="33.0255" x2="56.9999" y2="80.9743" gradientUnits="userSpaceOnUse">
<stop stop-color="#00B2FF"/>
<stop offset="1" stop-color="#8FFCFF"/>
</linearGradient>
<linearGradient id="paint1_linear_110_26" x1="57" y1="2" x2="57" y2="112" gradientUnits="userSpaceOnUse">
<stop stop-color="#00B2FF"/>
<stop offset="1" stop-color="#8FFCFF"/>
</linearGradient>
</defs>
</svg>
