<svg width="114" height="114" viewBox="0 0 114 114" fill="none" xmlns="http://www.w3.org/2000/svg">
<path fill-rule="evenodd" clip-rule="evenodd" d="M57.2013 30.2052C42.513 30.2052 30.6079 42.3268 30.6079 57.2822C30.6079 69.2405 38.2289 79.3888 48.7934 82.9793C50.1195 83.2315 50.6149 82.3858 50.6149 81.6736C50.6149 81.0208 50.5858 78.8992 50.5858 76.6292C43.1833 78.2612 41.6241 73.4393 41.6241 73.4393C40.4147 70.3087 38.6661 69.4779 38.6661 69.4779C36.2472 67.8014 38.8409 67.831 38.8409 67.831C41.5076 68.0239 42.921 70.6203 42.921 70.6203C45.2962 74.7598 49.1432 73.558 50.6586 72.8755C50.8918 71.1248 51.5912 69.9378 52.3489 69.2553C46.4474 68.5729 40.2253 66.2435 40.2253 55.8727C40.2253 52.9202 41.2598 50.5018 42.9647 48.6027C42.6879 47.9202 41.7844 45.1606 43.227 41.4366C43.227 41.4366 45.4565 40.7096 50.542 44.211C52.6695 43.6176 54.9427 43.306 57.2013 43.306C59.4599 43.3208 61.7331 43.6176 63.8606 44.211C68.9316 40.7096 71.161 41.4366 71.161 41.4366C72.6036 45.1606 71.7002 47.9202 71.4233 48.6027C73.1282 50.5018 74.1628 52.9202 74.1628 55.8727C74.1628 66.2732 67.9407 68.558 62.0246 69.2257C62.9717 70.0714 63.8315 71.7182 63.8315 74.2405C63.8315 77.8606 63.8023 80.7834 63.8023 81.6736C63.8023 82.4006 64.2832 83.2315 65.6238 82.9793C76.1883 79.3888 83.7947 69.2553 83.7947 57.2822C83.7947 42.3268 71.8896 30.2052 57.2013 30.2052Z" fill="url(#paint0_linear_110_58)"/>
<path d="M40.6768 69.0771C40.6185 69.2106 40.4145 69.2551 40.225 69.1661C40.0356 69.0771 39.919 68.8991 39.9919 68.7655C40.0502 68.632 40.2542 68.5875 40.4436 68.6765C40.6331 68.7655 40.7496 68.9436 40.6768 69.0771Z" fill="url(#paint1_linear_110_58)"/>
<path d="M41.755 70.3088C41.6239 70.4275 41.3762 70.3682 41.2159 70.1901C41.041 69.9972 41.0119 69.745 41.143 69.6263C41.2742 69.5076 41.5073 69.567 41.6822 69.745C41.857 69.9379 41.8862 70.1901 41.755 70.3088Z" fill="url(#paint2_linear_110_58)"/>
<path d="M42.8046 71.8664C42.6443 71.9851 42.382 71.8812 42.2071 71.629C42.0468 71.3916 42.0468 71.0949 42.2071 70.9762C42.3674 70.8575 42.6297 70.9614 42.8046 71.1987C42.9794 71.451 42.9794 71.7477 42.8046 71.8664Z" fill="url(#paint3_linear_110_58)"/>
<path d="M44.2469 73.3649C44.1012 73.5281 43.7952 73.4836 43.5621 73.2611C43.3289 73.0385 43.2706 72.727 43.4164 72.5638C43.5621 72.4005 43.8827 72.4451 44.1012 72.6676C44.3344 72.905 44.3927 73.2166 44.2469 73.3649Z" fill="url(#paint4_linear_110_58)"/>
<path d="M46.2288 74.2404C46.1705 74.4482 45.8645 74.552 45.5585 74.463C45.2525 74.374 45.0631 74.1218 45.1213 73.914C45.1796 73.7063 45.4856 73.6025 45.7916 73.6915C46.0831 73.7805 46.2871 74.0327 46.2288 74.2404Z" fill="url(#paint5_linear_110_58)"/>
<path d="M48.4002 74.4037C48.4148 74.6263 48.1525 74.8191 47.8319 74.8191C47.5113 74.834 47.2636 74.6411 47.249 74.4185C47.249 74.196 47.4967 74.0031 47.8173 74.0031C48.1379 74.0031 48.4002 74.1812 48.4002 74.4037Z" fill="url(#paint6_linear_110_58)"/>
<path d="M50.4256 74.0623C50.4694 74.2848 50.2508 74.5074 49.9302 74.5667C49.6242 74.6261 49.3328 74.4926 49.3036 74.27C49.2599 74.0475 49.4931 73.8249 49.7991 73.7656C50.1051 73.7062 50.3819 73.8397 50.4256 74.0623Z" fill="url(#paint7_linear_110_58)"/>
<path d="M112 57C112 26.6243 87.3757 2 57 2C26.6243 2 2 26.6243 2 57C2 87.3757 26.6243 112 57 112" stroke="url(#paint8_linear_110_58)" stroke-width="3"/>
<defs>
<linearGradient id="paint0_linear_110_58" x1="57.2013" y1="30.2052" x2="57.2013" y2="83.0254" gradientUnits="userSpaceOnUse">
<stop stop-color="#00B2FF"/>
<stop offset="1" stop-color="#8FFCFF"/>
</linearGradient>
<linearGradient id="paint1_linear_110_58" x1="40.3343" y1="68.6302" x2="40.3343" y2="69.2124" gradientUnits="userSpaceOnUse">
<stop stop-color="#00B2FF"/>
<stop offset="1" stop-color="#8FFCFF"/>
</linearGradient>
<linearGradient id="paint2_linear_110_58" x1="41.449" y1="69.5646" x2="41.449" y2="70.3706" gradientUnits="userSpaceOnUse">
<stop stop-color="#00B2FF"/>
<stop offset="1" stop-color="#8FFCFF"/>
</linearGradient>
<linearGradient id="paint3_linear_110_58" x1="42.5113" y1="70.9269" x2="42.5113" y2="71.9154" gradientUnits="userSpaceOnUse">
<stop stop-color="#00B2FF"/>
<stop offset="1" stop-color="#8FFCFF"/>
</linearGradient>
<linearGradient id="paint4_linear_110_58" x1="43.8317" y1="72.4657" x2="43.8317" y2="73.463" gradientUnits="userSpaceOnUse">
<stop stop-color="#00B2FF"/>
<stop offset="1" stop-color="#8FFCFF"/>
</linearGradient>
<linearGradient id="paint5_linear_110_58" x1="45.6748" y1="73.6595" x2="45.6748" y2="74.495" gradientUnits="userSpaceOnUse">
<stop stop-color="#00B2FF"/>
<stop offset="1" stop-color="#8FFCFF"/>
</linearGradient>
<linearGradient id="paint6_linear_110_58" x1="47.8249" y1="74.0031" x2="47.8249" y2="74.8199" gradientUnits="userSpaceOnUse">
<stop stop-color="#00B2FF"/>
<stop offset="1" stop-color="#8FFCFF"/>
</linearGradient>
<linearGradient id="paint7_linear_110_58" x1="49.8648" y1="73.7515" x2="49.8648" y2="74.5808" gradientUnits="userSpaceOnUse">
<stop stop-color="#00B2FF"/>
<stop offset="1" stop-color="#8FFCFF"/>
</linearGradient>
<linearGradient id="paint8_linear_110_58" x1="57" y1="2" x2="57" y2="112" gradientUnits="userSpaceOnUse">
<stop stop-color="#00B2FF"/>
<stop offset="1" stop-color="#8FFCFF"/>
</linearGradient>
</defs>
</svg>
