<svg width="114" height="114" viewBox="0 0 114 114" fill="none" xmlns="http://www.w3.org/2000/svg">
<path d="M58.0836 24.1612C56.7639 32.0783 43.0989 38.6899 43.0989 57.9884C43.0989 75.4406 52.7074 80.7622 54.6872 81.5874C58.3153 77.7929 57.7535 46.4284 58.0836 24.1612Z" fill="url(#paint0_linear_110_18)"/>
<path d="M58.5605 28.4558C60.2445 32.9185 71.304 44.1329 71.304 57.9886C71.304 71.8443 65.201 78.2767 59.9232 82.0699C59.9232 82.0699 59.9232 87.3894 59.9232 88.544C59.9232 89.6986 58.9957 90.2759 58.4184 90.2759C57.8411 90.2759 56.7896 89.7397 56.7896 88.8323C56.7896 87.925 56.7896 82.4821 56.7896 82.4821C61.5723 80.338 58.8077 42.3937 58.5605 28.4558Z" fill="url(#paint1_linear_110_18)"/>
<path d="M57 112C26.6243 112 2 87.3757 2 57C2 26.6243 26.6243 2 57 2C87.3757 2 112 26.6243 112 57C112 61.8023 111.385 66.4609 110.228 70.9011C106.101 86.7469 95.086 99.8121 80.5714 106.707" stroke="url(#paint2_linear_110_18)" stroke-width="3"/>
<defs>
<linearGradient id="paint0_linear_110_18" x1="50.5912" y1="24.1612" x2="50.5912" y2="81.5874" gradientUnits="userSpaceOnUse">
<stop stop-color="#00B2FF"/>
<stop offset="1" stop-color="#8FFCFF"/>
</linearGradient>
<linearGradient id="paint1_linear_110_18" x1="64.0468" y1="28.4558" x2="64.0468" y2="90.2759" gradientUnits="userSpaceOnUse">
<stop stop-color="#00B2FF"/>
<stop offset="1" stop-color="#8FFCFF"/>
</linearGradient>
<linearGradient id="paint2_linear_110_18" x1="57" y1="2" x2="57" y2="112" gradientUnits="userSpaceOnUse">
<stop stop-color="#00B2FF"/>
<stop offset="1" stop-color="#8FFCFF"/>
</linearGradient>
</defs>
</svg>
