<svg width="114" height="114" viewBox="0 0 114 114" fill="none" xmlns="http://www.w3.org/2000/svg">
<path d="M37.609 38.0055H76.3911V75.5916H37.609V38.0055ZM35.8462 77.3481H78.1539V36.2491H35.8462V77.3481ZM64.3686 53.1102C62.976 53.1102 62.5001 53.8127 62.5001 54.3923C62.5001 55.0246 62.8173 55.4637 64.686 56.4297C67.4536 57.7646 68.3174 59.0467 68.3174 60.926C68.3174 63.7362 66.1668 65.2467 63.2581 65.2467C61.7244 65.2467 60.4023 64.9305 59.6443 64.4915C59.5209 64.4388 59.5033 64.351 59.5033 64.2104V61.6285C59.5033 61.4529 59.5914 61.4002 59.7148 61.4881C60.8254 62.2082 62.0946 62.5243 63.2581 62.5243C64.6507 62.5243 65.2324 61.9447 65.2324 61.1543C65.2324 60.522 64.827 59.96 63.0465 59.0467C60.5433 57.8524 59.5033 56.6405 59.5033 54.6207C59.5033 52.3549 61.2838 50.4757 64.3686 50.4757C65.8847 50.4757 66.9424 50.704 67.5241 50.9675C67.6651 51.0553 67.7003 51.1957 67.7003 51.3187V53.7248C67.7003 53.8653 67.6122 53.9532 67.4359 53.9005C66.6603 53.4088 65.5145 53.1102 64.3686 53.1102ZM49.2084 55.2003C49.6138 55.2354 49.9312 55.2354 50.6363 55.2354C52.6988 55.2354 54.6379 54.5153 54.6379 51.7227C54.6379 49.4922 53.2452 48.368 50.9007 48.368C50.1956 48.368 49.5257 48.4032 49.2084 48.4207V55.2003ZM46.0706 45.874C46.0706 45.7511 46.3174 45.6632 46.4584 45.6632C47.5866 45.6105 49.2613 45.5754 51.0065 45.5754C55.8895 45.5754 57.7933 48.245 57.7933 51.6524C57.7933 56.1135 54.5497 58.028 50.5658 58.028C49.8959 58.028 49.6668 57.9929 49.1907 57.9929V64.7373C49.1907 64.8778 49.1378 64.948 48.9792 64.948H46.2821C46.1411 64.948 46.0705 64.8954 46.0705 64.7373L46.0706 45.874Z" fill="url(#paint0_linear_110_54)"/>
<path d="M57 112C26.6243 112 2 87.3757 2 57C2 26.6243 26.6243 2 57 2C87.3757 2 112 26.6243 112 57C112 64.4189 110.531 71.4946 107.868 77.9524" stroke="url(#paint1_linear_110_54)" stroke-width="3"/>
<defs>
<linearGradient id="paint0_linear_110_54" x1="57" y1="36.2491" x2="57" y2="77.348" gradientUnits="userSpaceOnUse">
<stop stop-color="#00B2FF"/>
<stop offset="1" stop-color="#8FFCFF"/>
</linearGradient>
<linearGradient id="paint1_linear_110_54" x1="57" y1="2" x2="57" y2="112" gradientUnits="userSpaceOnUse">
<stop stop-color="#00B2FF"/>
<stop offset="1" stop-color="#8FFCFF"/>
</linearGradient>
</defs>
</svg>
