<svg width="114" height="114" viewBox="0 0 114 114" fill="none" xmlns="http://www.w3.org/2000/svg">
<path d="M51.5961 57.1397C51.5961 54.0585 54.1135 51.5557 57.2127 51.5557C60.3119 51.5557 62.8294 54.0585 62.8294 57.1397C62.8294 60.2209 60.3119 62.7236 57.2127 62.7236C54.1135 62.7236 51.5961 60.2209 51.5961 57.1397ZM88.6301 57.1397C88.6301 60.9772 84.0764 64.8593 76.7367 67.2731C76.3563 67.3954 75.9647 67.5178 75.5619 67.6402C75.7073 68.2074 75.8304 68.7636 75.9423 69.3087C76.6248 72.7569 76.7367 75.9604 76.2556 78.5633C75.7409 81.333 74.5773 83.3019 72.899 84.2696C72.0599 84.759 71.0641 85.0038 69.9564 85.0038C66.9132 85.0038 63.0531 83.1795 59.0253 79.7313C58.4546 79.2418 57.8952 78.7302 57.3246 78.1851C56.8882 78.6078 56.4519 79.0082 56.0155 79.3864C53.3527 81.7001 50.6115 83.3909 48.1052 84.2696C46.7962 84.7368 45.5655 84.9704 44.469 84.9704C43.3277 84.9704 42.3208 84.7257 41.4705 84.2362C38.2593 82.3898 37.1405 77.0728 38.4943 70.0094C38.6286 69.2864 38.7964 68.5411 38.9866 67.7848C38.3936 67.6179 37.823 67.4399 37.2748 67.2508C33.9294 66.1163 31.0875 64.6035 29.0624 62.8793C26.9142 61.0551 25.7729 59.064 25.7729 57.1397C25.7729 53.4467 29.8456 49.8316 36.6818 47.4735C37.4314 47.2176 38.2146 46.9729 39.0202 46.7393C38.8411 46.0385 38.6845 45.3489 38.5502 44.6704C37.8901 41.3111 37.767 38.2299 38.1922 35.7494C38.6621 33.0464 39.7698 31.1221 41.4145 30.1766C44.7487 28.2523 50.4213 30.2322 56.1946 35.3379C56.5414 35.6493 56.8882 35.9719 57.2463 36.3056C57.7721 35.805 58.298 35.3267 58.8127 34.8707C61.4084 32.6238 64.0377 30.9775 66.4097 30.1099C68.9942 29.1644 71.2319 29.1644 72.8655 30.0987C76.2108 32.012 77.3185 37.8851 75.7521 45.4045C75.6626 45.8606 75.5507 46.3166 75.4388 46.7838C76.1325 46.984 76.8038 47.1954 77.4528 47.4178C80.7086 48.5302 83.4498 49.9762 85.3966 51.578C87.5112 53.3355 88.6301 55.2598 88.6301 57.1397ZM59.1259 38.2077C60.9161 40.1209 62.7063 42.3456 64.4293 44.7927C67.3943 45.0708 70.225 45.5158 72.8431 46.1164C72.9438 45.6937 73.0445 45.2822 73.1228 44.8706C74.5885 37.785 73.3242 33.4469 71.5228 32.4124C70.6054 31.8896 69.1173 31.9563 67.3271 32.6126C65.2573 33.369 62.9189 34.8484 60.5693 36.884C60.0882 37.2956 59.6071 37.7405 59.1259 38.2077ZM42.3096 65.8604C44.0998 66.2497 46.0354 66.5612 48.0941 66.7837C47.4227 65.7381 46.7626 64.6702 46.1249 63.5801C45.4983 62.5123 44.9053 61.4333 44.3459 60.3543C43.5515 62.2231 42.8578 64.0807 42.3096 65.8604ZM46.1249 50.8327C46.7514 49.7649 47.3892 48.7082 48.0493 47.6848C46.0577 47.9295 44.1445 48.2632 42.3432 48.6525C42.8914 50.41 43.5627 52.2231 44.3459 54.0696C44.9053 52.9907 45.4983 51.9117 46.1249 50.8327ZM48.4521 62.2453C49.4255 63.9138 50.4548 65.5378 51.5289 67.084C53.3527 67.1952 55.2547 67.262 57.2127 67.262C59.1819 67.262 61.1063 67.1952 62.9636 67.0617C63.9818 65.5378 64.9887 63.9249 65.9845 62.2231C66.9691 60.5323 67.8754 58.8304 68.6921 57.1619C67.8754 55.5268 66.9803 53.8583 65.9845 52.1564C65.0111 50.4768 63.993 48.875 62.9524 47.34C61.0839 47.1954 59.1595 47.1286 57.2127 47.1286C55.2883 47.1286 53.3639 47.2065 51.4842 47.3511C50.4325 48.8861 49.4031 50.499 48.4409 52.1675C47.4787 53.8249 46.5836 55.5157 45.7668 57.2064C46.5836 58.8861 47.4787 60.5768 48.4521 62.2453ZM66.3873 66.7392C68.4572 66.4944 70.4264 66.1607 72.2501 65.7492C71.6907 64.0028 70.9858 62.1563 70.1355 60.2431C69.5648 61.3443 68.9495 62.4567 68.3117 63.5579C67.674 64.648 67.0362 65.7158 66.3873 66.7392ZM72.1158 48.6859C70.3033 48.2743 68.3789 47.9406 66.3761 47.6848C67.025 48.697 67.6628 49.7426 68.2893 50.8105C68.9271 51.9117 69.5313 53.0018 70.1019 54.0696C70.8963 52.2231 71.5788 50.41 72.1158 48.6859ZM53.5093 44.548C54.7289 44.4924 55.9596 44.459 57.2015 44.459C58.4658 44.459 59.7077 44.4924 60.9497 44.548C59.7301 42.9351 58.4882 41.4446 57.2463 40.1098C55.982 41.4557 54.7289 42.9463 53.5093 44.548ZM41.1907 44.1587C41.3138 44.7927 41.4593 45.4268 41.6271 46.083C44.234 45.4935 47.0647 45.0597 50.0297 44.7816C51.7527 42.3678 53.5541 40.1543 55.3778 38.1966C55.0645 37.8962 54.7512 37.607 54.438 37.3401C48.978 32.5348 44.5697 31.4558 42.7683 32.4903C41.8509 33.0131 41.1684 34.3368 40.8439 36.2055C40.4747 38.3634 40.5866 41.122 41.1907 44.1587ZM42.8019 57.2175C41.56 54.5257 40.5194 51.8672 39.7362 49.3199C38.9866 49.5313 38.2705 49.7538 37.5768 49.9985C31.2889 52.1787 28.4694 55.1597 28.4694 57.1508C28.4694 59.2198 31.5015 62.4789 38.1475 64.737C38.6509 64.9038 39.1656 65.0707 39.7027 65.2264C40.4971 62.6346 41.5376 59.9428 42.8019 57.2175ZM55.4449 76.283C53.5988 74.3253 51.7863 72.0895 50.0521 69.6535C46.9864 69.4088 44.1445 68.9972 41.5935 68.4299C41.4145 69.1418 41.2691 69.8315 41.1348 70.4989C39.8929 77.006 41.09 80.9215 42.8131 81.9114C44.6144 82.9459 48.9668 81.9671 54.2589 77.362C54.6393 77.0283 55.0421 76.6612 55.4449 76.283ZM61.0056 69.8426C59.7637 69.8982 58.4882 69.9316 57.2127 69.9316C55.9596 69.9316 54.74 69.9093 53.5429 69.8648C54.7848 71.4888 56.0491 72.9905 57.3246 74.3587C58.5441 73.0127 59.7861 71.5111 61.0056 69.8426ZM73.3242 69.8315C73.2235 69.3309 73.1116 68.8304 72.9773 68.3076C70.3816 68.9082 67.5173 69.342 64.4741 69.609C62.7398 72.1118 60.9609 74.3476 59.2043 76.2608C59.7301 76.7724 60.2672 77.2508 60.7818 77.6957C65.8279 82.0116 69.8334 82.9459 71.5676 81.9448C73.3689 80.9215 74.6892 76.6835 73.3242 69.8315ZM85.956 57.1397C85.956 56.083 85.1505 54.8371 83.6848 53.6247C81.9953 52.2231 79.5338 50.944 76.5912 49.9317C75.9871 49.7315 75.3605 49.5313 74.7228 49.3422C73.9507 51.8227 72.9214 54.4589 71.6571 57.1508C72.9773 59.9205 74.0514 62.579 74.8346 65.0595C75.1927 64.9483 75.5507 64.8371 75.8975 64.7258C82.8009 62.4567 85.956 59.1975 85.956 57.1397Z" fill="url(#paint0_linear_110_29)"/>
<path d="M57 112C26.6243 112 2 87.3757 2 57C2 26.6243 26.6243 2 57 2C87.3757 2 112 26.6243 112 57C112 60.3543 111.7 63.6385 111.125 66.8271" stroke="url(#paint1_linear_110_29)" stroke-width="3"/>
<defs>
<linearGradient id="paint0_linear_110_29" x1="57.2015" y1="29.3994" x2="57.2015" y2="85.0037" gradientUnits="userSpaceOnUse">
<stop stop-color="#00B2FF"/>
<stop offset="1" stop-color="#8FFCFF"/>
</linearGradient>
<linearGradient id="paint1_linear_110_29" x1="57" y1="2" x2="57" y2="112" gradientUnits="userSpaceOnUse">
<stop stop-color="#00B2FF"/>
<stop offset="1" stop-color="#8FFCFF"/>
</linearGradient>
</defs>
</svg>
