<svg width="114" height="114" viewBox="0 0 114 114" fill="none" xmlns="http://www.w3.org/2000/svg">
<path d="M57.0002 37.0549C48.028 37.0549 42.4207 41.4872 40.1774 50.351C43.5423 45.9187 47.4676 44.2572 51.9532 45.3649C54.5129 45.9969 56.3422 47.8322 58.3675 49.8629C61.6659 53.1709 65.4835 56.9995 73.8229 56.9995C82.7943 56.9995 88.4024 52.5672 90.6448 43.7025C87.2808 48.1349 83.3555 49.7972 78.869 48.6895C76.3102 48.0575 74.4809 46.2222 72.4556 44.1915C69.1572 40.8835 65.3388 37.0549 57.0002 37.0549ZM40.1774 56.9995C31.206 56.9995 25.5979 61.4318 23.3555 70.2965C26.7195 65.8642 30.6448 64.2018 35.1313 65.3103C37.6901 65.9432 39.5194 67.7776 41.5447 69.8075C44.8431 73.1156 48.6616 76.945 57.0002 76.945C65.9724 76.945 71.5797 72.5127 73.8229 63.648C70.458 68.0803 66.5328 69.7427 62.0471 68.6342C59.4874 68.003 57.6582 66.1669 55.6328 64.137C52.3344 60.8289 48.5168 56.9995 40.1774 56.9995Z" fill="url(#paint0_linear_110_49)"/>
<path d="M57 112C26.6243 112 2 87.3757 2 57C2 26.6243 26.6243 2 57 2C87.3757 2 112 26.6243 112 57C112 60.5115 111.671 63.9461 111.042 67.2747" stroke="url(#paint1_linear_110_49)" stroke-width="3"/>
<defs>
<linearGradient id="paint0_linear_110_49" x1="57.0002" y1="37.0549" x2="57.0002" y2="76.945" gradientUnits="userSpaceOnUse">
<stop stop-color="#00B2FF"/>
<stop offset="1" stop-color="#8FFCFF"/>
</linearGradient>
<linearGradient id="paint1_linear_110_49" x1="57" y1="2" x2="57" y2="112" gradientUnits="userSpaceOnUse">
<stop stop-color="#00B2FF"/>
<stop offset="1" stop-color="#8FFCFF"/>
</linearGradient>
</defs>
</svg>
