<svg width="114" height="114" viewBox="0 0 114 114" fill="none" xmlns="http://www.w3.org/2000/svg">
<path d="M80.2747 33.4286H34.2396C34.0912 33.4286 33.8315 33.5026 33.8315 33.5396V80.1685H80.5715V33.5396C80.5715 33.5026 80.4231 33.4286 80.2747 33.4286ZM75.5636 75.6167H39.2474C38.6539 75.6167 38.6539 75.6167 38.6539 75.0245V38.7946C38.6539 38.2025 38.6539 38.3505 39.2474 38.3505H75.5265C76.12 38.3505 76.12 38.2025 76.12 38.8316V75.0245C76.12 75.4686 76.0088 75.6167 75.5636 75.6167ZM61.9126 65.6988C63.9899 66.2909 66.0673 65.9948 68.1446 65.7358C68.5897 65.6988 68.6639 65.4397 68.6639 64.9956V47.8984H65.8818V54.4856C64.3238 54.3376 62.9142 54.3746 61.5416 54.9667C59.3159 55.8919 58.2031 57.9643 58.3144 60.9249C58.3886 63.3303 59.6869 65.0696 61.9126 65.6988ZM62.3577 57.5942C63.3964 57.0021 64.4722 57.0391 65.5479 57.1871C65.6221 57.1871 65.7705 57.3722 65.7705 57.4832V63.4413C64.7689 63.6264 63.8044 63.7004 62.8771 63.4413C61.69 63.1083 61.0223 62.2201 60.8739 60.8878C60.7626 59.4446 61.3191 58.1863 62.3577 57.5942ZM49.7825 65.7728L52.7872 59.2965L55.6806 65.7728H58.9821L54.6419 56.595L59.0192 47.8614H55.7919L52.6759 53.9305L50.1534 47.8984L46.7407 47.8614L50.7469 57.0761L46.4439 65.7728H49.7825Z" fill="url(#paint0_linear_110_44)"/>
<path d="M112 57C112 26.6243 87.3757 2 57 2C26.6243 2 2 26.6243 2 57C2 87.3757 26.6243 112 57 112" stroke="url(#paint1_linear_110_44)" stroke-width="3"/>
<defs>
<linearGradient id="paint0_linear_110_44" x1="57.2015" y1="33.4286" x2="57.2015" y2="80.1685" gradientUnits="userSpaceOnUse">
<stop stop-color="#00B2FF"/>
<stop offset="1" stop-color="#8FFCFF"/>
</linearGradient>
<linearGradient id="paint1_linear_110_44" x1="57" y1="2" x2="57" y2="112" gradientUnits="userSpaceOnUse">
<stop stop-color="#00B2FF"/>
<stop offset="1" stop-color="#8FFCFF"/>
</linearGradient>
</defs>
</svg>
